<!-- Generated by IcoMoon.io -->
<svg version="1.1" xmlns="http://www.w3.org/2000/svg" width="1132" height="1024" viewBox="0 0 1132 1024">
<title></title>
<g id="icomoon-ignore">
</g>
<path d="M1131.256 800.881l-4.317-23.302c-2.752-14.891-15.753-25.697-30.916-25.697-1.902 0-3.821 0.174-5.709 0.521l-87.89 16.145 39.801-26.608c10.432-6.972 15.703-19.443 13.429-31.816-0.632-3.388-1.816-6.64-3.532-9.685l-12.045-21.328c-4.127-7.328-11.165-12.773-19.289-14.931-3.979-1.062-8.138-1.297-12.196-0.769 4.432-24.461 6.717-49.445 6.717-74.878 0-11.284-6.787-20.996-16.479-25.307 12.665-30.125 13.529-64.614 1.010-96.199-1.015-2.567-2.522-4.86-4.473-6.814-1.937-1.937-4.202-3.433-6.773-4.466-15.004-5.975-30.772-9.002-46.867-9.002-2.057 0-4.107 0.052-6.149 0.149-2.296-46.272-40.594-83.212-87.345-83.212-6.157 0-12.16 0.654-17.958 1.874 4.026-24.095 1.655-49.301-7.729-72.966-1.008-2.601-2.522-4.937-4.581-7.028-1.98-1.98-4.303-3.509-6.881-4.531-16.161-6.437-33.147-9.699-50.487-9.699-26.119 0-51.105 7.342-72.675 20.994-7.879-22.828-20.875-44.258-39.032-62.457-5.319-5.328-12.392-8.264-19.919-8.264s-14.6 2.935-19.925 8.267l-80.271 80.454c-14.855-13.249-34.403-21.17-55.619-21.17-4.815 0-9.676 0.422-14.447 1.254-17.293 3.011-33.206 11.474-45.406 23.87-15.644-7.549-33.566-10.123-50.787-7.127-3.789 0.659-7.464 1.588-11.032 2.72v-61.997c0-42.694-34.315-77.489-76.76-78.223v-35.161c12.992-2.248 22.914-13.572 22.914-27.198v-79.665c0-15.235-12.394-27.631-27.632-27.631h-134.822c-15.237 0-27.631 12.397-27.631 27.631v79.665c0 13.626 9.921 24.95 22.914 27.198v35.156c-42.446 0.732-76.758 35.527-76.758 78.224v483.872c-33.1 29.894-53.707 71.605-53.707 117.729 0 90.732 79.634 164.55 177.52 164.55l663.568-0.194c22.648-0.009 43.949-9.963 58.438-27.307 14.111-16.883 20.108-38.815 16.653-60.443l132.536 23.82c1.834 0.329 3.713 0.498 5.576 0.498 6.609 0 12.944-2.030 18.306-5.864 6.895-4.924 11.56-12.548 12.805-20.911l3.589-24.087c0.517-3.451 0.46-6.925-0.171-10.332-2.28-12.317-11.659-22.090-23.895-24.894l-46.714-10.716 87.804-16.131c8.28-1.52 15.464-6.169 20.23-13.089 4.757-6.904 6.534-15.247 5.009-23.495zM941.726 479.898c9.981 0 19.794 1.581 29.229 4.696 8.431 25.672 5.274 53.363-7.928 76.238h-44.661l14.252-14.284c6.467-6.482 6.455-16.979-0.029-23.448-6.484-6.467-16.982-6.457-23.446 0.027l-7.54 7.558c-3.534-11.638-9.706-22.059-17.818-30.607 16.454-13.066 36.654-20.18 57.94-20.18zM848.231 396.836c29.94 0 54.299 24.43 54.299 54.461 0 0.557-0.027 1.108-0.043 1.66-17.476 5.684-33.584 15.179-47.321 28.072-2.186-0.828-4.403-1.599-6.681-2.228-4.849-26.2-22.505-47.199-45.828-57.008 9.679-14.995 26.477-24.957 45.575-24.957zM760.595 304.486c11.26 0 22.327 1.822 32.989 5.425 8.571 25.481 6.819 52.855-4.1 76.565-8.977 8.178-16.26 18.191-21.238 29.446-2.961 0.172-5.921 0.499-8.844 1.008-12.992 2.262-25.106 7.899-35.244 16.073-3.456-6.322-7.691-12.155-12.54-17.408l38.019-38.105c6.467-6.48 6.455-16.979-0.029-23.444-6.482-6.467-16.98-6.457-23.448 0.027l-41.553 41.648c-7.908-3.738-16.454-6.338-25.435-7.554 3.88-19.783 13.479-38.425 28.331-53.311 19.539-19.585 45.496-30.37 73.090-30.37zM633.556 560.832h-14.37c-2.42-6.158-8.404-10.524-15.423-10.524s-13.003 4.367-15.423 10.524h-16.905c3.925-6.392 3.131-14.862-2.411-20.394-6.48-6.467-16.979-6.457-23.446 0.025l-15.626 15.658c-1.405 1.407-2.483 3.009-3.277 4.71h-33.743c-12.637-19.393-20.351-42.282-21.263-66.907h263.021c-0.913 24.625-8.625 47.514-21.263 66.907h-35.114c-0.79-1.701-1.874-3.307-3.275-4.712l-15.624-15.66c-6.471-6.478-16.964-6.496-23.444-0.025-5.548 5.53-6.34 14.002-2.413 20.397zM594.998 460.768c6.25-23.16 27.375-40.25 52.413-40.25s46.164 17.092 52.413 40.25h-104.825zM628.901 256.911c15.77 17.043 26.196 37.279 31.309 58.548-8.463 9.198-15.495 19.363-21.042 30.177-2.517-1.543-5.469-2.447-8.636-2.447h-22.091c-9.157 0-16.58 7.423-16.58 16.58 0 9.155 7.423 16.578 16.58 16.578h19.379c-1.089 4.577-1.937 9.212-2.551 13.88-6.582 1.73-12.87 4.191-18.754 7.326-11.050-19.070-29.349-33.282-51.029-38.982-0.007-0.047-0.016-0.093-0.025-0.14-1.299-7.502-3.568-14.62-6.66-21.236l80.1-80.283zM329.203 406.51c-0.972-2.72-1.708-5.508-2.194-8.307-4.754-27.413 13.725-53.604 41.186-58.384 2.896-0.505 5.839-0.762 8.744-0.762 10.923 0 21.36 3.485 30.183 10.075 3.649 2.727 8.264 3.83 12.757 3.052 4.491-0.78 8.463-3.374 10.984-7.173 7.782-11.74 19.691-19.53 33.53-21.939 2.901-0.507 5.851-0.76 8.761-0.76 24.563 0 45.44 17.573 49.635 41.788 0.481 2.776 0.729 5.666 0.733 8.594 0.016 8.582 6.579 15.735 15.13 16.486 18.534 1.629 34.313 13.294 41.628 29.728-9.793 11.753-16.582 26.103-19.16 41.858h-94.548c-11.756 0-21.842 7.256-26.049 17.527-20.8-14.167-45.315-21.8-71.006-21.8-16.095 0-31.863 3.031-46.876 9.008-2.546 1.017-4.824 2.519-6.764 4.459-1.967 1.967-3.478 4.274-4.468 6.802-3.816 9.622-6.36 19.515-7.734 29.47-5.943-6.766-10.129-15.177-11.765-24.616-3.898-22.494 7.876-44.891 28.627-54.466 7.799-3.6 11.559-12.556 8.664-20.64zM378.627 556.3l4.522 4.533h-39.817c-8.939-20.739-10.297-44.345-3.040-66.485 9.448-3.121 19.257-4.698 29.227-4.698 24.982 0 48.482 9.764 66.168 27.49 2.352 2.359 4.542 4.829 6.6 7.384 2.81 12.719 7.127 24.871 12.689 36.307h-24.986l-27.891-27.953c-6.469-6.48-16.968-6.498-23.444-0.027-6.484 6.469-6.498 16.968-0.029 23.45zM308.023 560.832h-59.103c2.635-16.059 12.295-29.748 25.704-37.822 7.937 10.635 18.297 19.233 30.235 25.059 0.844 4.301 1.881 8.566 3.164 12.762zM140.708 33.158h123.769v68.612h-123.769v-68.612zM241.563 134.928v34.69h-77.939v-34.69h77.939zM86.867 315.11h107.659c9.159 0 16.578-7.423 16.578-16.58 0-9.155-7.42-16.578-16.578-16.578h-107.659v-34.078c0-24.869 20.169-45.099 44.96-45.099h141.535c24.793 0 44.963 20.23 44.963 45.099v34.078h-30.957c-9.159 0-16.578 7.423-16.578 16.578 0 9.157 7.42 16.58 16.578 16.58h30.957v14.715c-18.996 18.622-28.861 45.934-23.989 74.028 0.009 0.056 0.020 0.113 0.029 0.171-26.597 18.247-40.77 50.688-35.125 83.257 0.329 1.901 0.742 3.771 1.193 5.621-8.282 4.567-15.721 10.465-22.097 17.365h-151.468v-195.156zM86.864 543.422h132.219c-1.759 5.589-3.002 11.404-3.607 17.41h-2.794c-15.259 0-27.677 12.426-27.677 27.698 0 26.326 2.449 52.168 7.19 77.452-4.764-0.383-9.649-0.587-14.618-0.587-20.050 0-39.153 3.18-53.784 8.959-22.381 8.837-28.569 21.385-29.919 30.070-2.372 1.18-4.702 2.427-7.010 3.703v-164.704zM296.8 747.089c5.97 4.777 9.62 8.837 11.735 11.767-0.199 0.002-0.406 0.004-0.616 0.004-9.383 0-26.243-3.782-45.415-14.395-7.137-3.954-13.714-8.422-19.019-12.915-6.185-5.242-15.254-5.237-21.436 0.002-5.305 4.498-11.878 8.964-19.010 12.91-19.176 10.617-36.035 14.399-45.417 14.399-0.214 0-0.42-0.002-0.621-0.004 2.113-2.93 5.763-6.992 11.736-11.772 5.219-4.177 7.418-11.083 5.577-17.509-1.844-6.428-7.365-11.122-14.008-11.9-16.179-1.895-26.409-6.015-31.199-9.011 6.002-3.738 21.175-10.111 48.479-10.111 22.613 0 39.141 4.754 47.069 9.205 5.043 2.829 11.189 2.829 16.231 0.004 7.932-4.452 24.461-9.207 47.075-9.207 27.307 0 42.478 6.376 48.477 10.111-4.788 3-15.020 7.116-31.203 9.013-6.643 0.78-12.168 5.47-14.009 11.9-1.847 6.43 0.352 13.335 5.576 17.51zM263.635 948.878l0.571 3.072c1.971 10.648 6.13 20.421 11.938 28.918h-98.624c-79.601 0-144.362-58.941-144.362-131.392 0-49.515 30.258-92.699 74.813-115.092 5.117 3.821 11.497 7.114 19.066 9.771-3.002 5.125-5.093 10.639-5.586 16.389-0.654 7.644 1.684 14.904 6.592 20.442 6.483 7.321 16.435 11.032 29.579 11.032 17.516 0 40.5-6.934 61.477-18.549 4.829-2.671 9.396-5.494 13.671-8.444 4.274 2.946 8.841 5.77 13.671 8.447 20.979 11.611 43.962 18.543 61.478 18.545h0.002c13.14 0 23.092-3.712 29.572-11.030 4.91-5.539 7.251-12.798 6.595-20.444-0.494-5.751-2.585-11.264-5.587-16.389 7.57-2.659 13.952-5.954 19.068-9.771 35.335 17.76 61.665 48.599 71.053 85.301l-117.257 44.544c-34.322 13.041-54.396 48.64-47.729 84.649zM874.079 965.267c-8.176 9.787-20.207 15.403-33.005 15.407l-17.403 0.007-10.871-58.7c-1.669-9.004-10.314-14.958-19.323-13.283-9 1.667-14.949 10.315-13.281 19.319l9.757 52.675-57.046 0.022-7.349-39.693c-1.669-9.004-10.315-14.95-19.321-13.283-9.002 1.667-14.95 10.315-13.283 19.319l6.234 33.672-132.687 0.050-9.987-53.911c-1.671-9.002-10.314-14.949-19.323-13.28-9.002 1.665-14.949 10.317-13.281 19.321l8.869 47.882-193.737 0.075c-0.005 0-0.009 0-0.014 0-20.717 0-38.472-14.699-42.225-34.962l-0.571-3.072c-3.746-20.239 7.567-40.261 26.902-47.609l65.161-24.754 4.854 26.2c1.479 7.982 8.445 13.562 16.28 13.562 1.004 0 2.021-0.093 3.041-0.28 9.002-1.669 14.949-10.319 13.28-19.323l-5.954-32.125 96.721-36.744c8.558-3.252 12.863-12.827 9.611-21.387s-12.84-12.863-21.385-9.611l-45.007 17.099c-12.626-44.704-45.063-82.046-88.078-103.44-1.351-8.682-7.538-21.231-29.917-30.070-14.631-5.778-33.735-8.959-53.783-8.959-13.799 0-26.976 1.523-38.607 4.297v-10.014c0-9.155-7.421-16.578-16.58-16.578-3.87 0-7.421 1.335-10.244 3.559-2.616-17.293-4.078-34.857-4.321-52.67h540.002c9.159 0 16.58-7.423 16.58-16.58 0-9.155-7.421-16.578-16.58-16.578h-6.784c10.558-21.743 16.521-46.121 16.521-71.885 0-14.627-11.19-26.676-25.453-28.045 6.209-5.855 13.959-9.803 22.598-11.309 2.529-0.438 5.098-0.663 7.637-0.663 21.403 0 39.593 15.313 43.247 36.406 0.422 2.441 0.638 4.962 0.64 7.493 0.013 8.585 6.577 15.743 15.13 16.495 19.812 1.739 36.021 16.641 39.42 36.235 0.902 5.21 0.789 10.351-0.115 15.272h-17.789c-9.159 0-16.578 7.423-16.578 16.578 0 9.157 7.42 16.58 16.578 16.58h128.855c-0.411 30.411-4.328 60.12-11.634 88.942l-89.848 53.038c-5.495-19.125-18.269-35.348-35.865-45.198-19.738-11.045-43.195-12.771-64.349-4.737l-185.046 70.298c-8.56 3.252-12.863 12.829-9.611 21.387 3.252 8.562 12.838 12.859 21.385 9.611l24.377-9.259 7.57 40.865c1.479 7.984 8.445 13.565 16.282 13.565 1.002 0 2.019-0.093 3.040-0.282 9-1.665 14.95-10.315 13.283-19.319l-8.668-46.797 129.159-49.068c11.968-4.543 25.226-3.57 36.383 2.675 11.136 6.232 18.852 16.975 21.168 29.47l33.54 181.074c2.312 12.487-1.042 25.248-9.202 35.015zM933.232 835.496c-7.736 1.421-13.405 8.079-13.58 15.942-0.172 7.863 5.204 14.764 12.868 16.522l123.435 28.311-3.085 20.688-143.096-25.715-22.368-120.769 124.639-73.575 10.382 18.385-105.127 70.275c-6.537 4.369-9.105 12.73-6.148 20.017 2.955 7.285 10.626 11.494 18.358 10.073l165.139-30.336 3.677 19.851-165.096 30.33z"></path>
</svg>
