<svg width="42" height="57" viewBox="0 0 42 57" fill="none" xmlns="http://www.w3.org/2000/svg">
<path d="M13.4233 34.1625C13.4233 33.7071 13.0562 33.3379 12.603 33.3379H4.64807C4.19493 33.3379 3.82776 33.7071 3.82776 34.1625V39.4935C3.82776 39.9489 4.19493 40.3181 4.64807 40.3181H12.603C13.0562 40.3181 13.4233 39.9489 13.4233 39.4935V34.1625ZM11.7827 38.6688H5.46838V34.987H11.7827V38.6688Z" fill="#071F41"/>
<path d="M32.9326 38.5413H37.352C37.8051 38.5413 38.1723 38.1721 38.1723 37.7167C38.1723 37.2613 37.8051 36.8921 37.352 36.8921H32.9326C32.4794 36.8921 32.1122 37.2613 32.1122 37.7167C32.1122 38.1721 32.4794 38.5413 32.9326 38.5413Z" fill="#071F41"/>
<path d="M32.9326 34.9871H37.352C37.8051 34.9871 38.1723 34.6179 38.1723 34.1625C38.1723 33.7071 37.8051 33.3379 37.352 33.3379H32.9326C32.4794 33.3379 32.1122 33.7071 32.1122 34.1625C32.1122 34.6179 32.4794 34.9871 32.9326 34.9871Z" fill="#071F41"/>
<path d="M40.8875 43.0564C40.4344 43.0564 40.0672 43.4256 40.0672 43.881V54.4874C40.0672 54.6452 39.9396 54.7735 39.7826 54.7735H2.21721C2.06026 54.7735 1.93262 54.6452 1.93262 54.4874V36.2391C1.93262 35.7837 1.56545 35.4146 1.1123 35.4146C0.659164 35.4146 0.291992 35.7837 0.291992 36.2391V54.4873C0.291992 55.5545 1.15562 56.4226 2.21721 56.4226H39.7826C40.8441 56.4226 41.7078 55.5545 41.7078 54.4873V43.8809C41.7078 43.4256 41.3406 43.0564 40.8875 43.0564Z" fill="#071F41"/>
<path d="M39.7827 28.1182H26.2397V23.9358C30.4775 21.9455 33.4213 17.6205 33.4213 12.6165C33.4213 5.73165 27.8491 0.130371 21 0.130371C18.6229 0.130371 16.3124 0.807635 14.3182 2.08905C12.3777 3.33594 10.8216 5.09397 9.81823 7.17282C9.62048 7.58258 9.79066 8.07591 10.1983 8.27469C10.6062 8.47336 11.0966 8.30229 11.2944 7.89274C13.1142 4.12194 16.8332 1.77955 21 1.77955C26.9446 1.77955 31.7807 6.64101 31.7807 12.6165C31.7807 18.5921 26.9446 23.4535 21 23.4535C15.0553 23.4535 10.2192 18.5921 10.2192 12.6165C10.2192 12.1955 10.2435 11.7712 10.2914 11.3555C10.3436 10.903 10.0209 10.4938 9.57093 10.4415C9.12041 10.3886 8.71376 10.7133 8.66169 11.1657C8.60657 11.6442 8.57857 12.1323 8.57857 12.6167C8.57857 17.6206 11.5224 21.9456 15.7602 23.9359V28.1184H2.21721C1.15573 28.1184 0.291992 28.9865 0.291992 30.0537V32.3721C0.291992 32.8275 0.659164 33.1967 1.1123 33.1967C1.56545 33.1967 1.93262 32.8275 1.93262 32.3721V30.0537C1.93262 29.8959 2.06026 29.7676 2.21721 29.7676H12.8936L20.3825 38.3711C20.5384 38.5499 20.7633 38.6526 21 38.6526C21.2366 38.6526 21.4615 38.5499 21.6174 38.3711L29.1063 29.7676H39.7827C39.9397 29.7676 40.0673 29.8959 40.0673 30.0537V40.011C40.0673 40.4664 40.4345 40.8356 40.8876 40.8356C41.3408 40.8356 41.7079 40.4664 41.7079 40.011V30.0537C41.7078 28.9863 40.8442 28.1182 39.7827 28.1182ZM21 36.5755L15.0737 29.7674H16.5804C17.0336 29.7674 17.4008 29.3982 17.4008 28.9428V24.5676C18.5406 24.9152 19.7487 25.1028 20.9998 25.1028C22.251 25.1028 23.4593 24.9152 24.5989 24.5676V28.9428C24.5989 29.3982 24.9661 29.7674 25.4193 29.7674H26.926L21 36.5755Z" fill="#071F41"/>
<path d="M4.64795 48.426H6.85765C7.31079 48.426 7.67797 48.0568 7.67797 47.6014C7.67797 47.1461 7.31079 46.7769 6.85765 46.7769H4.64795C4.19481 46.7769 3.82764 47.1461 3.82764 47.6014C3.82764 48.0568 4.19492 48.426 4.64795 48.426Z" fill="#071F41"/>
<path d="M12.603 46.7769H10.3933C9.94017 46.7769 9.573 47.1461 9.573 47.6014C9.573 48.0568 9.94017 48.426 10.3933 48.426H12.603C13.0562 48.426 13.4233 48.0568 13.4233 47.6014C13.4233 47.1461 13.056 46.7769 12.603 46.7769Z" fill="#071F41"/>
<path d="M18.3483 48.426C18.8014 48.426 19.1686 48.0568 19.1686 47.6014C19.1686 47.1461 18.8014 46.7769 18.3483 46.7769H16.1385C15.6854 46.7769 15.3182 47.1461 15.3182 47.6014C15.3182 48.0568 15.6854 48.426 16.1385 48.426H18.3483Z" fill="#071F41"/>
<path d="M24.0935 48.426C24.5466 48.426 24.9138 48.0568 24.9138 47.6014C24.9138 47.1461 24.5466 46.7769 24.0935 46.7769H21.8838C21.4306 46.7769 21.0635 47.1461 21.0635 47.6014C21.0635 48.0568 21.4306 48.426 21.8838 48.426H24.0935Z" fill="#071F41"/>
<path d="M4.64795 52.8684H13.4869C13.94 52.8684 14.3072 52.4992 14.3072 52.0438C14.3072 51.5884 13.94 51.2192 13.4869 51.2192H4.64795C4.19481 51.2192 3.82764 51.5884 3.82764 52.0438C3.82764 52.4992 4.19492 52.8684 4.64795 52.8684Z" fill="#071F41"/>
<path d="M27.6927 49.8228C27.6927 51.5022 29.0521 52.8686 30.7228 52.8686C31.5936 52.8686 32.3792 52.4969 32.9325 51.9036C33.4857 52.4969 34.2713 52.8686 35.1422 52.8686C36.8129 52.8686 38.1722 51.5022 38.1722 49.8228C38.1722 48.1433 36.8129 46.7769 35.1422 46.7769C34.2713 46.7769 33.4857 47.1486 32.9325 47.7418C32.3792 47.1486 31.5936 46.7769 30.7228 46.7769C29.0521 46.7769 27.6927 48.1433 27.6927 49.8228ZM35.1423 48.426C35.9085 48.426 36.5317 49.0526 36.5317 49.8228C36.5317 50.5928 35.9085 51.2194 35.1423 51.2194C34.3761 51.2194 33.7529 50.5928 33.7529 49.8228C33.7529 49.0526 34.3761 48.426 35.1423 48.426ZM32.1123 49.8228C32.1123 50.5928 31.489 51.2194 30.7229 51.2194C29.9567 51.2194 29.3335 50.5928 29.3335 49.8228C29.3335 49.0526 29.9567 48.426 30.7229 48.426C31.489 48.426 32.1123 49.0526 32.1123 49.8228Z" fill="#071F41"/>
<path d="M18.2824 16.9319C17.9036 16.6825 17.3951 16.7895 17.1469 17.1705C16.8988 17.5516 17.0051 18.0627 17.3843 18.3119C18.445 19.0094 19.1688 19.216 20.1055 19.268V20.1768C20.1055 20.6322 20.4727 21.0014 20.9258 21.0014C21.3789 21.0014 21.7461 20.6322 21.7461 20.1768V19.2027C23.6055 18.8391 24.6915 17.2995 24.932 15.8613C25.2408 14.0148 24.2798 12.4093 22.4838 11.7712C22.2415 11.6851 21.9934 11.5946 21.7461 11.5005V7.54553C22.372 7.69363 22.745 8.01214 22.7771 8.0404C23.1103 8.34385 23.6253 8.3212 23.9307 7.98817C24.2379 7.65339 24.2169 7.1317 23.8839 6.82297C23.8367 6.77943 23.0437 6.0616 21.7461 5.86787V5.05604C21.7461 4.60064 21.3789 4.23145 20.9258 4.23145C20.4727 4.23145 20.1055 4.60064 20.1055 5.05604V5.93109C19.9806 5.95858 19.8538 5.99035 19.7242 6.0296C18.5418 6.3877 17.6583 7.40491 17.4185 8.68446C17.1998 9.85076 17.5713 10.9754 18.388 11.6192C18.8225 11.9618 19.3636 12.2756 20.1055 12.6072V17.6166C19.4586 17.5702 19.0145 17.4132 18.2824 16.9319ZM19.4006 10.3217C19.0676 10.0592 18.9259 9.54885 19.0307 8.98988C19.1251 8.48655 19.4572 7.8813 20.1055 7.64085V10.7733C19.84 10.6292 19.5998 10.4788 19.4006 10.3217ZM21.9371 13.3262C23.4745 13.8725 23.3796 15.1955 23.314 15.588C23.1856 16.3565 22.6516 17.171 21.7461 17.4915V13.2575C21.8096 13.2804 21.8718 13.303 21.9371 13.3262Z" fill="#071F41"/>
</svg>
