<!-- Generated by IcoMoon.io -->
<svg version="1.1" xmlns="http://www.w3.org/2000/svg" width="898" height="1024" viewBox="0 0 898 1024">
<title></title>
<g id="icomoon-ignore">
</g>
<path d="M430.673 411.576c-3.428-1.218-6.92-2.485-10.418-3.789v-63.741c11.568 4.608 19.693 11.065 20.013 11.321 8.361 6.891 20.701 5.697 27.598-2.684 6.918-8.408 5.747-20.855-2.616-27.811-1.15-0.956-19.406-15.863-44.993-22.151v-9.679c0-10.91-8.799-19.752-19.648-19.752-10.851 0-19.65 8.842-19.65 19.752v8.765c-2.080 0.451-4.17 0.958-6.273 1.593-22.589 6.841-38.896 25.979-43.624 51.198-4.592 24.502 3.35 48.936 20.236 62.247 7.705 6.074 17.095 11.645 29.664 17.433v83.539c-8.898-1.258-15.57-4.294-26.2-11.284-9.079-5.972-21.256-3.415-27.201 5.716-5.939 9.13-3.397 21.369 5.688 27.343 18.664 12.274 31.825 16.583 47.713 17.96v12.283c0 10.908 8.799 19.751 19.65 19.751 10.849 0 19.648-8.842 19.648-19.751v-14.174c32.682-8.325 53.629-36.386 58.257-64.052 5.948-35.587-13.278-67.747-47.842-80.032zM380.959 389.592c-1.947-1.254-3.764-2.528-5.411-3.828-5.303-4.18-7.716-13.989-5.867-23.848 0.62-3.307 3.128-13.125 11.278-18.337v46.014zM439.758 485.062c-1.796 10.732-8.415 22.012-19.503 28.381v-63.572c21.326 9.015 20.794 27.458 19.503 35.191z"></path>
<path d="M876.513 424.346l-124.793-82.842v-319.41c0-10.909-8.799-19.752-19.65-19.752h-471.579c-10.851 0-19.65 8.843-19.65 19.752v75.056h-74.666c-10.85 0-19.649 8.843-19.649 19.752v224.606l-124.794 82.84c-5.506 3.654-8.82 9.847-8.82 16.481v553.044c0 10.908 8.799 19.751 19.649 19.751h328.14c10.851 0 19.65-8.842 19.65-19.751s-8.799-19.752-19.65-19.752h-280.701l286.473-287.967 71.822 47.679c3.282 2.179 7.055 3.27 10.827 3.27s7.545-1.090 10.829-3.27l71.822-47.679 286.474 287.967h-280.704c-10.851 0-19.65 8.844-19.65 19.752s8.799 19.751 19.65 19.751h328.14c10.851 0 19.648-8.842 19.648-19.751v-553.044c0-6.634-3.315-12.827-8.819-16.483zM830.027 440.828l-78.307 51.981v-103.965l78.307 51.983zM280.141 41.845h432.279v477.053l-55.016 36.523v-438.52c0-10.909-8.799-19.752-19.65-19.752h-357.613v-55.304zM146.526 388.845v103.965l-78.308-51.981 78.308-51.983zM52.211 946.189v-468.647l280.787 186.395-280.787 282.252zM449.123 693.679l-263.297-174.782v-382.244h432.279v444.853l-168.982 112.173zM846.036 477.542v468.647l-280.788-282.254 280.788-186.393z"></path>
<path d="M449.123 974.122c-5.169 0-10.236 2.114-13.892 5.788-3.654 3.674-5.758 8.769-5.758 13.964 0 5.194 2.102 10.29 5.758 13.964 3.658 3.674 8.724 5.786 13.892 5.786s10.236-2.113 13.89-5.786c3.654-3.674 5.76-8.77 5.76-13.964s-2.104-10.29-5.76-13.964c-3.654-3.674-8.722-5.788-13.89-5.788z"></path>
</svg>
